<?xml version="1.0" encoding="UTF-8"?>
<svg id="Capa_1" xmlns="http://www.w3.org/2000/svg" version="1.1" viewBox="0 0 472.1 469.2">
  <!-- Generator: Adobe Illustrator 29.4.0, SVG Export Plug-In . SVG Version: 2.1.0 Build 152)  -->
  <defs>
    <style>
      .st0 {
        fill: #f1f7ed;
      }
    </style>
  </defs>
  <path class="st0" d="M316.3,309h45.7V0h-46s0,181,0,181c-7.9-11.5-29.7-24-48.5-32.9C190.2,111.8,158.1,14.7,156,0h-45.9v307.3l45.6,1.5.5-138.5c14.2,17.9,43.8,42,73.6,51.8,57.2,18.8,78.8,64,86.6,86.9ZM156.1,116.6v-34.2c13.9,21,39.6,68.6,102.6,94.9,26.9,11.2,45,25.8,57.3,44.5v33.1c-6.4-14-23.3-39.5-66.5-57-64.7-26.2-92.1-78.4-93.3-81.4Z"/>
  <g>
    <path class="st0" d="M5.7,416.1l42.1,21.5c2.1,1.1,3.2,2.6,3.2,4.6v.4c0,2-1.1,3.5-3.2,4.6l-42.1,21.5c-.7.3-1.5.5-2.2.5-1.9.1-3.5-1.6-3.5-3.6s1.1-2.9,2.5-3.6l39.2-19.4-39.2-19.6c-1.4-.7-2.5-1.9-2.5-3.6s1.6-3.6,3.6-3.6,1.5.3,2.1.5Z"/>
    <path class="st0" d="M142.5,416.1l42.1,21.5c2.1,1.1,3.2,2.6,3.2,4.6v.4c0,2-1.1,3.5-3.2,4.6l-42.1,21.5c-.7.3-1.5.5-2.2.5-1.9.1-3.5-1.6-3.5-3.6s1.1-2.9,2.5-3.6l39.2-19.4-39.2-19.6c-1.4-.7-2.5-1.9-2.5-3.6s1.6-3.6,3.6-3.6,1.5.3,2.1.5Z"/>
    <path class="st0" d="M281.6,416.1l42.1,21.5c2.1,1.1,3.2,2.6,3.2,4.6v.4c0,2-1.1,3.5-3.2,4.6l-42.1,21.5c-.7.3-1.5.5-2.2.5-1.9.1-3.5-1.6-3.5-3.6s1.1-2.9,2.5-3.6l39.2-19.4-39.2-19.6c-1.4-.7-2.5-1.9-2.5-3.6s1.6-3.6,3.6-3.6,1.5.3,2.1.5Z"/>
    <path class="st0" d="M426.8,416.1l42.1,21.5c2.1,1.1,3.2,2.6,3.2,4.6v.4c0,2-1.1,3.5-3.2,4.6l-42.1,21.5c-.7.3-1.5.5-2.2.5-1.9.1-3.5-1.6-3.5-3.6s1.1-2.9,2.5-3.6l39.2-19.4-39.2-19.6c-1.4-.7-2.5-1.9-2.5-3.6s1.6-3.6,3.6-3.6,1.5.3,2.1.5Z"/>
  </g>
</svg>