<?xml version="1.0" encoding="UTF-8"?>
<svg id="Capa_1" xmlns="http://www.w3.org/2000/svg" version="1.1" viewBox="0 0 1037.3 395.3">
  <!-- Generator: Adobe Illustrator 29.4.0, SVG Export Plug-In . SVG Version: 2.1.0 Build 152)  -->
  <defs>
    <style>
      .st0 {
        fill: #f1f7ed;
      }
    </style>
  </defs>
  <path class="st0" d="M170.8,284.5l24.1,12.3c1.2.6,1.8,1.5,1.8,2.6v.2c0,1.2-.6,2-1.8,2.6l-24.1,12.3c-.4.2-.9.3-1.3.3-1.1,0-2-.9-2-2.1s.6-1.7,1.4-2.1l22.5-11.1-22.5-11.3c-.8-.4-1.4-1.1-1.4-2.1s.9-2.1,2.1-2.1.9.2,1.2.3Z"/>
  <path class="st0" d="M249.2,284.5l24.1,12.3c1.2.6,1.8,1.5,1.8,2.6v.2c0,1.2-.6,2-1.8,2.6l-24.1,12.3c-.4.2-.9.3-1.3.3-1.1,0-2-.9-2-2.1s.6-1.7,1.4-2.1l22.5-11.1-22.5-11.3c-.8-.4-1.4-1.1-1.4-2.1s.9-2.1,2.1-2.1.9.2,1.2.3Z"/>
  <path class="st0" d="M328.9,284.5l24.1,12.3c1.2.6,1.8,1.5,1.8,2.6v.2c0,1.2-.6,2-1.8,2.6l-24.1,12.3c-.4.2-.9.3-1.3.3-1.1,0-2-.9-2-2.1s.6-1.7,1.4-2.1l22.5-11.1-22.5-11.3c-.8-.4-1.4-1.1-1.4-2.1s.9-2.1,2.1-2.1.9.2,1.2.3Z"/>
  <path class="st0" d="M412,284.5l24.1,12.3c1.2.6,1.8,1.5,1.8,2.6v.2c0,1.2-.6,2-1.8,2.6l-24.1,12.3c-.4.2-.9.3-1.3.3-1.1,0-2-.9-2-2.1s.6-1.7,1.4-2.1l22.5-11.1-22.5-11.3c-.8-.4-1.4-1.1-1.4-2.1s.9-2.1,2.1-2.1.9.2,1.2.3Z"/>
  <g>
    <path class="st0" d="M391.3,230.2c-17.8,0-31.7-5.3-41.7-15.8-10-10.6-15-24.4-15-41.7v-4.7c0-16.5,5.1-30.2,15.4-41,10.3-10.8,22.8-16.2,37.6-16.2s29,4.8,37.3,14.3c8.3,9.6,12.4,22.3,12.4,38.2v11.1h-79.3l-.3.5c0,11.6,2.7,20.9,8.3,28.1,5.5,7.2,13.9,10.8,25.2,10.8s14.3-1,20.1-3c5.8-2,10.7-4.8,14.8-8.3l8.8,13.6c-4.4,4-10.3,7.3-17.5,10-7.3,2.7-16,4.1-26.2,4.1ZM387.8,127.3c-7.9,0-14.4,2.8-19.5,8.5-5.2,5.6-8.3,12.8-9.5,21.6l.2.5h55.9v-1.7c0-8.4-2.2-15.3-6.6-20.7-4.4-5.5-11.3-8.2-20.5-8.2Z"/>
    <path class="st0" d="M531.6,155.3l26.4-42.4h26.4l-40.2,56.9,41.4,58.1h-25.9l-27.5-43.5-27.5,43.5h-26.1l41.4-58.1-40.2-56.9h26l26,42.4Z"/>
    <path class="st0" d="M706.6,210.9c-3.9,6.2-8.9,10.9-15,14.2-6.1,3.3-13.2,5-21.2,5-13.5,0-24.1-4-31.6-12-7.6-8-11.3-20.5-11.3-37.4v-67.8h22.6v68c0,12.3,1.9,20.7,5.8,25.3,3.9,4.6,10,6.9,18.2,6.9s14.6-1.5,19.9-4.5c5.2-3,9.2-7.3,11.9-12.8v-82.9h22.6v115h-20.3l-1.5-17Z"/>
    <path class="st0" d="M847.2,197c0-4.6-1.9-8.4-5.7-11.3-3.8-2.9-10.9-5.5-21.5-7.7-14.6-2.9-25.8-7-33.6-12.2-7.8-5.2-11.7-12.3-11.7-21s4.3-17.4,12.9-24c8.6-6.7,19.7-10,33.4-10s25.4,3.5,34.2,10.6c8.7,7.1,12.9,15.3,12.5,24.8l-.2.6h-21.5c0-5-2.3-9.5-7-13.5-4.7-4-10.6-6.1-17.8-6.1s-13.9,1.7-17.8,5c-3.9,3.3-5.9,7.3-5.9,11.9s1.7,8,5.1,10.5c3.4,2.5,10.4,4.7,21,6.8,15.2,3,26.7,7.2,34.6,12.6,7.9,5.5,11.8,12.6,11.8,21.4s-4.5,18.5-13.4,25c-8.9,6.5-20.5,9.7-34.9,9.7s-28.3-3.7-37.4-11.2c-9.1-7.4-13.4-16.1-12.9-26l.2-.6h21.5c.4,7.4,3.4,12.9,8.9,16.3,5.6,3.4,12.1,5.2,19.6,5.2s14.3-1.6,18.9-4.7c4.5-3.2,6.8-7.2,6.8-12.1Z"/>
    <path class="st0" d="M271.1,229.5h22.9V74.8h-23.1s0,90.6,0,90.6c-4-5.7-14.9-12-24.3-16.5-38.7-18.2-54.8-66.8-55.8-74.2h-23v153.9l22.8.7.2-69.4c7.1,9,21.9,21,36.9,25.9,28.7,9.4,39.5,32,43.4,43.5ZM190.9,133.2v-17.1c7,10.5,19.8,34.4,51.4,47.5,13.5,5.6,22.5,12.9,28.7,22.3v16.6c-3.2-7-11.7-19.8-33.3-28.6-32.4-13.1-46.1-39.3-46.7-40.8Z"/>
  </g>
  <g>
    <g>
      <path class="st0" d="M522.5,309.7c0-2.2-.9-4-2.8-5.3s-5.1-2.7-9.6-4.2c-4.5-1.3-7.8-2.7-10-4.2-2.1-1.5-3.2-3.7-3.2-6.6s1.3-5.2,3.8-7c2.5-1.8,5.7-2.7,9.5-2.7s7.2,1,9.6,3,3.6,4.7,3.5,8.3v.2h-1.3c0-2.9-1.1-5.3-3.3-7.2-2.2-1.9-5-2.8-8.6-2.8s-6.5.8-8.6,2.5c-2.1,1.6-3.2,3.6-3.2,5.8s.9,4,2.6,5.4c1.7,1.4,4.9,2.7,9.6,4.1,4.5,1.4,7.9,2.8,10.1,4.3,2.2,1.5,3.3,3.7,3.3,6.5s-1.3,5.3-3.9,7c-2.6,1.8-5.9,2.6-9.7,2.6s-7.5-.9-10.4-2.7c-2.9-1.8-4.3-4.7-4.2-8.5v-.2h1.3c0,3.5,1.3,6,4,7.6,2.7,1.6,5.8,2.4,9.3,2.4s6.4-.8,8.7-2.3c2.3-1.6,3.4-3.5,3.4-5.9Z"/>
      <path class="st0" d="M510.3,320.5c-4.2,0-7.9-1-11-2.9-3.3-2-4.9-5.3-4.8-9.6v-.2s.4-1.1.4-1.1h3.2v1.2c0,3.1,1.1,5.2,3.4,6.6,2.5,1.5,5.4,2.2,8.7,2.2s6-.7,8-2.1c2-1.3,2.9-3,2.9-4.9s-.8-3.3-2.3-4.4c-1.8-1.3-4.9-2.6-9.3-4-4.7-1.4-8-2.8-10.3-4.4-2.5-1.7-3.7-4.2-3.7-7.6s1.4-6,4.2-8c2.7-1.9,6.1-2.9,10.2-2.9s7.7,1.1,10.4,3.2c2.7,2.2,4,5.3,4,9.2v.2s-.4,1.1-.4,1.1h-3.3v-1.2c0-2.5-.9-4.6-2.9-6.3-2-1.7-4.5-2.6-7.8-2.6s-6,.7-7.9,2.2c-1.8,1.4-2.7,3-2.7,4.9s.7,3.4,2.1,4.5c1.6,1.3,4.7,2.6,9.2,3.9,4.7,1.4,8.1,2.9,10.5,4.4,2.5,1.7,3.8,4.2,3.8,7.5s-1.5,6-4.4,8c-2.8,1.9-6.3,2.8-10.4,2.8Z"/>
    </g>
    <g>
      <path class="st0" d="M567.7,302.3v16.6h-1.5v-38.6h12.5c4.1,0,7.3,1,9.6,3,2.2,2,3.4,4.7,3.4,8s-1.1,6-3.3,8-5.4,3-9.6,3h-11ZM567.7,300.8h11c3.8,0,6.7-.9,8.6-2.7,1.9-1.8,2.9-4.1,2.9-6.8s-1-5.1-2.9-6.9c-1.9-1.8-4.8-2.7-8.6-2.7h-11v19.2Z"/>
      <path class="st0" d="M568.9,320h-3.8v-40.9h13.7c4.4,0,7.9,1.1,10.3,3.3,2.5,2.2,3.7,5.2,3.7,8.9s-1.3,6.7-3.7,8.9c-2.4,2.2-5.9,3.3-10.4,3.3h-9.9v16.6ZM568.9,299.7h9.9c3.5,0,6.1-.8,7.8-2.4,1.7-1.6,2.5-3.6,2.5-6s-.8-4.5-2.5-6.1c-1.7-1.6-4.3-2.4-7.8-2.4h-9.9v16.8Z"/>
    </g>
    <g>
      <path class="st0" d="M662.2,302.4c0,5.2-1.3,9.3-4,12.4-2.7,3-6.4,4.6-11.1,4.6s-8.4-1.5-11.1-4.6c-2.7-3-4-7.2-4-12.4v-5.8c0-5.2,1.3-9.3,4-12.4,2.7-3.1,6.4-4.6,11.1-4.6s8.4,1.5,11.1,4.6c2.7,3.1,4,7.2,4,12.4v5.8ZM660.7,296.6c0-4.7-1.2-8.5-3.5-11.3-2.4-2.8-5.7-4.2-10.1-4.2s-7.7,1.4-10,4.2c-2.3,2.8-3.5,6.6-3.5,11.3v5.8c0,4.8,1.2,8.5,3.5,11.3,2.4,2.8,5.7,4.2,10.1,4.2s7.7-1.4,10.1-4.2c2.3-2.8,3.5-6.6,3.5-11.4v-5.8Z"/>
      <path class="st0" d="M647.1,320.5c-5,0-9.1-1.7-12-5-2.9-3.3-4.3-7.7-4.3-13.2v-5.8c0-5.5,1.4-9.9,4.3-13.1,2.9-3.3,6.9-5,11.9-5s9,1.7,12,5c2.9,3.3,4.3,7.7,4.3,13.1v5.8c0,5.5-1.4,9.9-4.3,13.2-2.9,3.3-6.9,5-11.9,5ZM647.1,282.3c-4,0-7,1.2-9.1,3.8-2.2,2.6-3.2,6.1-3.2,10.5v5.8c0,4.5,1.1,8,3.3,10.6,2.1,2.5,5.1,3.8,9.2,3.8s7-1.2,9.2-3.8c2.2-2.6,3.2-6.1,3.2-10.6v-5.8c0-4.4-1.1-8-3.3-10.5-2.2-2.5-5.2-3.8-9.2-3.8Z"/>
    </g>
    <g>
      <path class="st0" d="M706.5,300.7v18.1h-1.5v-38.6h13c4.2,0,7.5.9,9.7,2.6s3.4,4.3,3.4,7.7-.7,4.1-2.2,5.9-3.4,2.9-5.9,3.5c2.9.5,4.9,1.5,6.2,3s1.9,3.5,1.9,6v3.6c0,1.2.2,2.3.5,3.2.3,1,.8,1.7,1.5,2.3v.7h-1.5c-.7-.7-1.2-1.6-1.5-2.7s-.5-2.3-.5-3.6v-3.5c0-2.6-.9-4.7-2.8-6.1-1.9-1.5-4.5-2.2-8-2.2h-12.5ZM706.5,299.3h11.3c4.1,0,7.1-.8,9-2.5,1.9-1.7,2.9-3.7,2.9-6.2s-1-5.1-2.9-6.6c-2-1.5-4.9-2.3-8.7-2.3h-11.5v17.6Z"/>
      <path class="st0" d="M734.3,320h-3.1l-.3-.4c-.8-.8-1.4-1.9-1.7-3.1-.4-1.2-.5-2.5-.5-3.9v-3.5c0-2.3-.8-4-2.3-5.2-1.6-1.3-4.1-1.9-7.2-1.9h-11.3v18.1h-3.8v-40.9h14.2c4.5,0,8,1,10.4,2.9,2.6,2,3.9,4.9,3.9,8.6s-.8,4.7-2.4,6.7c-.9,1.1-1.9,1.9-3.1,2.6,1.4.6,2.5,1.4,3.4,2.5,1.4,1.8,2.1,4,2.1,6.7v3.6c0,1.1.1,2,.4,2.9.2.8.6,1.3,1.1,1.8l.4.3v2.4ZM707.6,298.1h10.1c3.8,0,6.6-.7,8.3-2.2,1.7-1.4,2.5-3.2,2.5-5.3s-.8-4.4-2.5-5.7c-1.7-1.4-4.4-2-8-2h-10.4v15.3Z"/>
    </g>
    <g>
      <path class="st0" d="M800.8,281.7h-14v37.1h-1.5v-37.1h-15v-1.4h30.5v1.4Z"/>
      <polygon class="st0" points="788 320 784.2 320 784.2 282.8 769.1 282.8 769.1 279.1 802 279.1 802 282.8 788 282.8 788 320"/>
    </g>
    <g>
      <path class="st0" d="M864.9,309.7c0-2.2-.9-4-2.8-5.3-1.9-1.4-5.1-2.7-9.6-4.2-4.5-1.3-7.8-2.7-10-4.2-2.1-1.5-3.2-3.7-3.2-6.6s1.3-5.2,3.8-7c2.5-1.8,5.7-2.7,9.5-2.7s7.2,1,9.6,3c2.4,2,3.6,4.7,3.5,8.3v.2h-1.3c0-2.9-1.1-5.3-3.3-7.2-2.2-1.9-5-2.8-8.6-2.8s-6.5.8-8.6,2.5c-2.1,1.6-3.2,3.6-3.2,5.8s.9,4,2.6,5.4,4.9,2.7,9.6,4.1c4.5,1.4,7.9,2.8,10.1,4.3,2.2,1.5,3.3,3.7,3.3,6.5s-1.3,5.3-3.9,7c-2.6,1.8-5.9,2.6-9.7,2.6s-7.5-.9-10.4-2.7c-2.9-1.8-4.3-4.7-4.2-8.5v-.2h1.3c0,3.5,1.3,6,4,7.6,2.7,1.6,5.8,2.4,9.3,2.4s6.4-.8,8.7-2.3c2.3-1.6,3.4-3.5,3.4-5.9Z"/>
      <path class="st0" d="M852.8,320.5c-4.2,0-7.9-1-11-2.9-3.3-2-4.9-5.3-4.8-9.6v-.2s.4-1.1.4-1.1h3.2v1.2c0,3.1,1.1,5.2,3.4,6.6,2.5,1.5,5.4,2.2,8.7,2.2s5.9-.7,8-2.1c2-1.3,2.9-3,2.9-4.9s-.8-3.3-2.3-4.4c-1.8-1.3-4.9-2.6-9.3-4-4.7-1.4-8-2.8-10.3-4.4-2.5-1.7-3.7-4.2-3.7-7.6s1.4-6,4.2-8c2.7-1.9,6.1-2.9,10.2-2.9s7.7,1.1,10.4,3.2c2.7,2.2,4,5.3,4,9.2v.2s-.4,1.1-.4,1.1h-3.3v-1.2c0-2.5-.9-4.6-2.9-6.3-2-1.7-4.5-2.6-7.8-2.6s-6,.7-7.9,2.2c-1.8,1.4-2.7,3-2.7,4.9s.7,3.4,2.1,4.5c1.6,1.3,4.7,2.6,9.2,3.9,4.7,1.4,8.1,2.9,10.5,4.4,2.6,1.7,3.8,4.2,3.8,7.5s-1.5,6-4.4,8c-2.8,1.9-6.3,2.8-10.4,2.8Z"/>
    </g>
  </g>
</svg>