<?xml version="1.0" encoding="UTF-8"?>
<svg id="Capa_1" xmlns="http://www.w3.org/2000/svg" version="1.1" viewBox="0 0 98.8 98.8">
  <!-- Generator: Adobe Illustrator 29.4.0, SVG Export Plug-In . SVG Version: 2.1.0 Build 152)  -->
  <defs>
    <style>
      .st0 {
        fill: #fff;
      }
    </style>
  </defs>
  <path class="st0" d="M47.3,35.9l10.6-11.6c.2-.2.3-.4.3-.7v-4.3c0-.6-.4-1-1-1H21.8c-2,0-3.7,1.7-3.7,3.7s1.7,3.7,3.7,3.7h25.3l-8.6,9.3c-1.2.5-2,1.8-2,3.2,0,.8,0,1.6.5,2.3.7,1,2.1,1.1,3,1.1,9.2,0,16.7,7.4,16.7,16.5s-7.5,16.5-16.7,16.5-16.7-7.4-16.7-16.5-1.5-3.5-3.5-3.5-3.5,1.6-3.5,3.5c0,13,10.6,23.5,23.7,23.5s23.7-10.5,23.7-23.5-6.9-19.3-16.4-22.4Z"/>
  <path class="st0" d="M83,19.1c-.1-.4-.5-.6-.9-.6h-11.2c-2,0-3.7,1.7-3.7,3.7s1.7,3.7,3.7,3.7h4.1v49.4c0,2.2,1.8,4,4,4s0,0,0,0c0,0,0,0,0,0h.5c.2,0,.4,0,.5-.2,1.7-.5,2.9-2,2.9-3.8V19.9c.1-.2.1-.5,0-.8Z"/>
</svg>