<?xml version="1.0" encoding="UTF-8"?>
<svg id="Capa_1" xmlns="http://www.w3.org/2000/svg" version="1.1" viewBox="0 0 98.8 98.8">
  <!-- Generator: Adobe Illustrator 29.4.0, SVG Export Plug-In . SVG Version: 2.1.0 Build 152)  -->
  <defs>
    <style>
      .st0 {
        fill: #fff;
      }
    </style>
  </defs>
  <g id="uuid-9d1c0400-8863-4b6f-94c0-88e8d5d9f2c6">
    <path class="st0" d="M49.9,52.6h-20.6c-9.4,0-17-7.7-17-17V14.1c0-1.7,1.4-3.1,3.1-3.1h20.6c9.4,0,17,7.7,17,17v21.6c0,1.7-1.4,3.1-3.1,3.1ZM18.4,17.2v18.5c0,6,4.8,10.8,10.8,10.8h17.5v-18.5c0-6-4.8-10.8-10.8-10.8,0,0-17.5,0-17.5,0Z"/>
    <path class="st0" d="M39,87.8h-14c-7.1,0-12.8-5.7-12.8-12.8v-15.1c0-1.7,1.4-3.1,3.1-3.1h14c7.1,0,12.8,5.7,12.8,12.8v15.1c0,1.7-1.4,3.1-3.1,3.1ZM18.4,63.2v12c0,3.6,3,6.6,6.6,6.6h10.9v-12c0-3.6-3-6.6-6.6-6.6,0,0-10.9,0-10.9,0Z"/>
    <path class="st0" d="M55.5,87.8h-5.6c-1.7,0-3.1-1.4-3.1-3.1v-17.7c0-5.6,4.6-10.2,10-10.2h5.6c1.7,0,3.1,1.4,3.1,3.1v17.7c0,5.6-4.6,10.2-10,10.2ZM53,81.6h2.5c2.1,0,4-1.7,4-4v-14.6h-2.5c-2.1,0-4,1.7-4,4,0,0,0,14.6,0,14.6Z"/>
    <path class="st0" d="M76.2,87.8h-5.6c-1.7,0-3.1-1.4-3.1-3.1v-17.7c0-5.6,4.6-10.2,10.2-10.2h5.6c1.7,0,3.1,1.4,3.1,3.1v17.7c0,5.6-4.6,10.2-10.2,10.2ZM73.7,81.6h2.5c2.1,0,4-1.7,4-4v-14.6h-2.5c-2.1,0-4,1.7-4,4,0,0,0,14.6,0,14.6Z"/>
    <path class="st0" d="M83.5,28.9h-23.3c-1.7,0-3.1-1.4-3.1-3.1s1.4-3.1,3.1-3.1h23.3c1.7,0,3.1,1.4,3.1,3.1s-1.4,3.1-3.1,3.1Z"/>
    <path class="st0" d="M83.5,40.8h-23.3c-1.7,0-3.1-1.4-3.1-3.1s1.4-3.1,3.1-3.1h23.3c1.7,0,3.1,1.4,3.1,3.1s-1.4,3.1-3.1,3.1Z"/>
    <path class="st0" d="M83.5,17.2h-23.3c-1.7,0-3.1-1.4-3.1-3.1s1.4-3.1,3.1-3.1h23.3c1.7,0,3.1,1.4,3.1,3.1s-1.4,3.1-3.1,3.1Z"/>
    <path class="st0" d="M83.5,52.6h-23.3c-1.7,0-3.1-1.4-3.1-3.1s1.4-3.1,3.1-3.1h23.3c1.7,0,3.1,1.4,3.1,3.1s-1.4,3.1-3.1,3.1Z"/>
  </g>
</svg>